<svg width="721" height="681" viewBox="0 0 721 681" fill="none" xmlns="http://www.w3.org/2000/svg">
<g clip-path="url(#clip0_53_81)">
<path d="M627.483 313.535C630.2 320.347 631.43 327.569 631.174 335.201C631.43 327.569 633.096 320.444 636.173 313.827C639.341 307.213 643.491 301.507 648.623 296.708C653.756 291.909 659.726 288.197 666.535 285.572C673.347 282.855 680.569 281.625 688.201 281.881C680.569 281.625 673.444 279.958 666.827 276.882C660.388 273.846 654.58 269.621 649.708 264.431C644.856 259.221 641.031 253.143 638.434 246.515C635.809 239.706 634.625 232.486 634.881 224.854C634.625 232.486 632.912 239.609 629.744 246.223C626.668 252.84 622.564 258.548 617.431 263.347C612.222 268.198 606.143 272.023 599.515 274.621C592.706 277.246 585.486 278.43 577.854 278.174C585.486 278.43 592.609 280.142 599.223 283.31C605.84 286.387 611.548 290.491 616.347 295.623C621.146 300.756 624.858 306.726 627.483 313.535Z" fill="#17261E"/>
</g>
<g filter="url(#filter0_d_53_81)">
<path d="M633 362C633 535.417 492.417 676 319 676C145.583 676 5 535.417 5 362C5 188.583 145.583 48 319 48" stroke="#17261E" stroke-width="10"/>
</g>
<g clip-path="url(#clip1_53_81)">
<path d="M673.167 343.015C674.548 346.477 675.173 350.148 675.043 354.027C675.173 350.148 676.02 346.527 677.583 343.164C679.194 339.802 681.303 336.902 683.912 334.463C686.52 332.024 689.555 330.137 693.015 328.803C696.477 327.422 700.148 326.796 704.027 326.927C700.148 326.796 696.527 325.95 693.164 324.386C689.891 322.843 686.939 320.696 684.463 318.058C681.997 315.41 680.053 312.32 678.733 308.952C677.398 305.491 676.796 301.821 676.927 297.942C676.796 301.821 675.926 305.442 674.316 308.803C672.752 312.167 670.666 315.068 668.058 317.507C665.41 319.972 662.321 321.916 658.952 323.237C655.491 324.571 651.821 325.173 647.942 325.043C651.821 325.173 655.442 326.043 658.803 327.653C662.167 329.217 665.068 331.303 667.507 333.912C669.946 336.52 671.832 339.555 673.167 343.015Z" fill="#17261E"/>
</g>
<g clip-path="url(#clip2_53_81)">
<path d="M392.875 502.75H491.375L516 453.5V552H368.25V469.58C418.707 447.836 454.438 393.71 454.438 330.375C454.438 247.881 393.811 183.29 319 183.29C244.189 183.29 183.562 247.857 183.562 330.375C183.562 393.71 219.293 447.836 269.75 469.58V552H122V453.5L146.625 502.75H245.125V490.216C172.925 464.655 122 402.723 122 330.375C122 235.175 210.207 158 319 158C427.793 158 516 235.175 516 330.375C516 402.723 465.076 464.63 392.875 490.216V502.75Z" fill="#17261E"/>
</g>
<g clip-path="url(#clip3_53_81)">
<path d="M673.167 343.015C674.548 346.477 675.173 350.148 675.043 354.027C675.173 350.148 676.02 346.527 677.583 343.164C679.194 339.802 681.303 336.902 683.912 334.463C686.52 332.024 689.555 330.137 693.015 328.803C696.477 327.422 700.148 326.796 704.027 326.927C700.148 326.796 696.527 325.95 693.164 324.386C689.891 322.843 686.939 320.696 684.463 318.058C681.997 315.41 680.053 312.32 678.733 308.952C677.398 305.491 676.796 301.821 676.927 297.942C676.796 301.821 675.926 305.442 674.316 308.803C672.752 312.167 670.666 315.068 668.058 317.507C665.41 319.972 662.321 321.916 658.952 323.237C655.491 324.571 651.821 325.173 647.942 325.043C651.821 325.173 655.442 326.043 658.803 327.653C662.167 329.217 665.068 331.303 667.507 333.912C669.946 336.52 671.832 339.555 673.167 343.015Z" fill="#17261E"/>
</g>
<g clip-path="url(#clip4_53_81)">
<path d="M392.875 502.75H491.375L516 453.5V552H368.25V469.58C418.707 447.836 454.438 393.71 454.438 330.375C454.438 247.881 393.811 183.29 319 183.29C244.189 183.29 183.562 247.857 183.562 330.375C183.562 393.71 219.293 447.836 269.75 469.58V552H122V453.5L146.625 502.75H245.125V490.216C172.925 464.655 122 402.723 122 330.375C122 235.175 210.207 158 319 158C427.793 158 516 235.175 516 330.375C516 402.723 465.076 464.63 392.875 490.216V502.75Z" fill="#17261E"/>
</g>
<defs>
<filter id="filter0_d_53_81" x="0" y="43" width="638" height="638" filterUnits="userSpaceOnUse" color-interpolation-filters="sRGB">
<feFlood flood-opacity="0" result="BackgroundImageFix"/>
<feColorMatrix in="SourceAlpha" type="matrix" values="0 0 0 0 0 0 0 0 0 0 0 0 0 0 0 0 0 0 127 0" result="hardAlpha"/>
<feOffset/>
<feComposite in2="hardAlpha" operator="out"/>
<feColorMatrix type="matrix" values="0 0 0 0 0 0 0 0 0 0 0 0 0 0 0 0 0 0 0.25 0"/>
<feBlend mode="normal" in2="BackgroundImageFix" result="effect1_dropShadow_53_81"/>
<feBlend mode="normal" in="SourceGraphic" in2="effect1_dropShadow_53_81" result="shape"/>
</filter>
<clipPath id="clip0_53_81">
<rect width="110.41" height="110.41" fill="white" transform="translate(579.707 223) rotate(1.92419)"/>
</clipPath>
<clipPath id="clip1_53_81">
<rect width="56.1167" height="56.1167" fill="white" transform="translate(648.884 297) rotate(1.92419)"/>
</clipPath>
<clipPath id="clip2_53_81">
<rect width="394" height="394" fill="white" transform="translate(122 158)"/>
</clipPath>
<clipPath id="clip3_53_81">
<rect width="56.1167" height="56.1167" fill="white" transform="translate(648.884 297) rotate(1.92419)"/>
</clipPath>
<clipPath id="clip4_53_81">
<rect width="394" height="394" fill="white" transform="translate(122 158)"/>
</clipPath>
</defs>
</svg>
